<?xml version="1.0" encoding="UTF-8" standalone="no"?>
<svg
   width="128"
   height="128"
   viewBox="0 0 128 128"
   version="1.1"
   id="svg24"
   sodipodi:docname="AppIcon.svg"
   inkscape:version="1.4.4 (dcaf3e7d9e, 2026-05-05)"
   xmlns:inkscape="http://www.inkscape.org/namespaces/inkscape"
   xmlns:sodipodi="http://sodipodi.sourceforge.net/DTD/sodipodi-0.dtd"
   xmlns="http://www.w3.org/2000/svg"
   xmlns:svg="http://www.w3.org/2000/svg">
  <sodipodi:namedview
     id="namedview24"
     pagecolor="#ffffff"
     bordercolor="#000000"
     borderopacity="0.25"
     inkscape:showpageshadow="2"
     inkscape:pageopacity="0.0"
     inkscape:pagecheckerboard="0"
     inkscape:deskcolor="#d1d1d1"
     inkscape:zoom="5"
     inkscape:cx="64"
     inkscape:cy="64"
     inkscape:window-width="2560"
     inkscape:window-height="1371"
     inkscape:window-x="0"
     inkscape:window-y="0"
     inkscape:window-maximized="1"
     inkscape:current-layer="svg24" />
  <defs
     id="defs11">
    <linearGradient
       id="tile"
       x1="27"
       y1="18"
       x2="99"
       y2="106"
       gradientUnits="userSpaceOnUse">
      <stop
         offset="0"
         stop-color="#62c5ff"
         id="stop1" />
      <stop
         offset="0.42"
         stop-color="#1f8df1"
         id="stop2" />
      <stop
         offset="1"
         stop-color="#0754b5"
         id="stop3" />
    </linearGradient>
    <linearGradient
       id="tileEdge"
       x1="64"
       y1="91"
       x2="64"
       y2="116"
       gradientUnits="userSpaceOnUse">
      <stop
         offset="0"
         stop-color="#074592"
         id="stop4" />
      <stop
         offset="1"
         stop-color="#03285d"
         id="stop5" />
    </linearGradient>
    <linearGradient
       id="ghost"
       x1="44"
       y1="34"
       x2="82"
       y2="94"
       gradientUnits="userSpaceOnUse">
      <stop
         offset="0"
         stop-color="#ffffff"
         id="stop6" />
      <stop
         offset="0.82"
         stop-color="#ffffff"
         id="stop7" />
      <stop
         offset="1"
         stop-color="#edf4ff"
         id="stop8" />
    </linearGradient>
    <linearGradient
       id="highlight"
       x1="36"
       y1="21"
       x2="77"
       y2="59"
       gradientUnits="userSpaceOnUse">
      <stop
         offset="0"
         stop-color="#ffffff"
         stop-opacity="0.72"
         id="stop9" />
      <stop
         offset="1"
         stop-color="#ffffff"
         stop-opacity="0"
         id="stop10" />
    </linearGradient>
    <filter
       id="shadow"
       x="-0.081230771"
       y="-0.35200001"
       width="1.1624615"
       height="1.9706667">
      <feGaussianBlur
         in="SourceAlpha"
         stdDeviation="2.2"
         id="feGaussianBlur10" />
      <feOffset
         dx="0"
         dy="4"
         result="offset"
         id="feOffset10" />
      <feComponentTransfer
         id="feComponentTransfer10">
        <feFuncA
           type="linear"
           slope="0.32"
           id="feFuncA10" />
      </feComponentTransfer>
      <feMerge
         id="feMerge11">
        <feMergeNode
           id="feMergeNode10" />
        <feMergeNode
           in="SourceGraphic"
           id="feMergeNode11" />
      </feMerge>
    </filter>
  </defs>
  <ellipse
     cx="64.088081"
     cy="115.0566"
     rx="63.298241"
     ry="11.967718"
     fill="#000000"
     opacity="0.24"
     id="ellipse11"
     style="stroke-width:1.37616" />
  <path
     d="m 26,28 c 0,-5.5 4.5,-10 10,-10 h 58 c 5.5,0 10,4.5 10,10 v 66 c 0,5.5 -4.5,10 -10,10 H 36 C 30.5,104 26,99.5 26,94 Z"
     fill="url(#tile)"
     id="path11"
     style="fill:url(#tile);filter:url(#shadow)"
     transform="matrix(1.2822788,0.28495085,-0.09863683,1.183642,-14.401211,-28.106715)" />
  <path
     d="m 26,89 h 78 v 9 c 0,5.5 -4.5,10 -10,10 H 36 c -5.5,0 -10,-4.5 -10,-10 z"
     fill="url(#tileEdge)"
     id="path12"
     style="fill:url(#tileEdge);filter:url(#shadow)"
     transform="matrix(1.3164844,0.28495085,-0.10126803,1.183642,-16.358731,-28.106715)" />
  <path
     d="M 32,25 H 97 V 54 C 78,43 55,39 32,44 Z"
     fill="url(#highlight)"
     id="path13"
     style="fill:url(#highlight);filter:url(#shadow)"
     transform="matrix(1.2822788,0.28495085,-0.09863683,1.183642,-14.401211,-28.106715)" />
  <path
     d="m 34,20 h 62 c 4.4,0 6,4 6,8 v 7 C 80,27 56,25 28,34 v -6 c 0,-4 2,-8 6,-8 z"
     fill="#ffffff"
     opacity="0.18"
     id="path14"
     transform="matrix(1.2822788,0.28495085,-0.09863683,1.183642,-14.401211,-28.106715)"
     style="filter:url(#shadow)" />
  <path
     d="m 36,18 h 58 c 5.5,0 10,4.5 10,10 v 66 c 0,5.5 -4.5,10 -10,10 H 36 C 30.5,104 26,99.5 26,94 V 28 c 0,-5.5 4.5,-10 10,-10 z"
     fill="none"
     stroke="#0a3f8a"
     stroke-width="2"
     id="path15"
     transform="matrix(1.2822788,0.28495085,-0.09863683,1.183642,-14.401211,-28.106715)"
     style="filter:url(#shadow)" />
  <g
     transform="matrix(1.2194986,0.29785453,-0.12007621,1.1368469,-9.0198236,-26.957513)"
     id="g22">
    <path
       d="M 64,34 C 51.4,34 41.2,43.6 41.2,55.4 v 27.4 c 0,5 4,9 8.9,9 3,0 5.6,-1.4 7.2,-3.6 1.6,2.2 4.2,3.6 7.2,3.6 2.9,0 5.5,-1.4 7.1,-3.6 1.6,2.2 4.3,3.6 7.2,3.6 4.9,0 8.9,-4 8.9,-9 V 55.4 C 87.7,43.6 77.2,34 64,34 Z"
       fill="#ffffff"
       stroke="#2f6fb8"
       stroke-width="1.15"
       stroke-linejoin="round"
       id="path16" />
    <path
       d="m 43,82.8 c 0,3.9 3.1,7.1 7.1,7.1 3.1,0 5.2,-1.8 7.2,-4.1 2,2.4 4.2,4.1 7.2,4.1 2.9,0 5.1,-1.7 7.1,-4.1 2,2.4 4.3,4.1 7.2,4.1 3.9,0 7.1,-3.2 7.1,-7.1"
       fill="none"
       stroke="#174f9f"
       stroke-width="1.45"
       stroke-linecap="round"
       stroke-linejoin="round"
       id="path17" />
    <path
       d="M 46.5,52 C 50,42.5 59,37.8 67.5,39.2"
       fill="none"
       stroke="#ffffff"
       stroke-width="3"
       stroke-linecap="round"
       id="path18" />
    <circle
       cx="55"
       cy="63"
       r="6.4000001"
       fill="#05070d"
       id="circle18" />
    <circle
       cx="75"
       cy="63"
       r="6.4000001"
       fill="#05070d"
       id="circle19" />
    <circle
       cx="52.799999"
       cy="60.599998"
       r="2.0999999"
       fill="#ffffff"
       id="circle20" />
    <circle
       cx="72.800003"
       cy="60.599998"
       r="2.0999999"
       fill="#ffffff"
       id="circle21" />
    <path
       d="m 59,73 c 4,3 9,3 13,0"
       fill="none"
       stroke="#05070d"
       stroke-width="3.3"
       stroke-linecap="round"
       id="path21" />
    <ellipse
       cx="49"
       cy="73.5"
       rx="4.8000002"
       ry="2.9000001"
       fill="#ff5548"
       id="ellipse21" />
    <ellipse
       cx="81"
       cy="73.5"
       rx="4.8000002"
       ry="2.9000001"
       fill="#ff5548"
       id="ellipse22" />
  </g>
  <g
     id="g28"
     transform="translate(0.4,-0.2)"
     style="display:none;fill:#dbe3de">
    <g
       id="g27"
       style="fill:#dbe3de">
      <g
         id="g26"
         transform="matrix(1.2848537,0,0,1.2848537,-21.806167,-10.796236)"
         style="fill:#dbe3de">
        <circle
           cx="93.979271"
           cy="37.321243"
           r="9"
           fill="#0b4c94"
           opacity="0.36"
           id="circle22"
           style="fill:#dbe3de" />
      </g>
      <g
         id="g25"
         transform="matrix(1.3411261,0,0,1.3411261,-22.557899,-12.783313)"
         style="fill:#dee3db;stroke:#ffffff;stroke-opacity:1">
        <g
           id="g24"
           transform="translate(0.59651363,2.2369261)"
           style="fill:#dee3db;stroke:#ffffff;stroke-opacity:1">
          <circle
             cx="90"
             cy="35"
             r="7.0999999"
             fill="#28ee20"
             stroke="#bfffb8"
             stroke-width="1.3"
             id="circle23"
             style="fill:#dee3db;stroke:#ffffff;stroke-opacity:1" />
        </g>
      </g>
    </g>
    <circle
       cx="97.065933"
       cy="32.442017"
       r="2.5755172"
       fill="#ffffff"
       opacity="0.65"
       id="circle24"
       style="fill:#f9f9f9;stroke-width:1.09596" />
  </g>
</svg>
